HIERARCHY
ROOT Hips
{
	OFFSET 0.000000 0.000000 0.000000
	CHANNELS 6 Xposition Yposition Zposition Xrotation Yrotation Zrotation
	JOINT LeftUpLeg_virtual
	{
		OFFSET 0.000000 0.000000 0.000000
		CHANNELS 3 Xrotation Yrotation Zrotation
		JOINT LeftUpLeg
		{
			OFFSET 13.026900 -6.336304 -1.092800
			CHANNELS 3 Xrotation Yrotation Zrotation
			JOINT LeftLeg
			{
				OFFSET 0.524474 -46.096886 9.782700
				CHANNELS 3 Xrotation Yrotation Zrotation
				JOINT LeftFoot
				{
					OFFSET -0.524474 -53.427422 -12.948200
					CHANNELS 3 Xrotation Yrotation Zrotation
					JOINT LeftToeBase
					{
						OFFSET 0.192200 -14.009700 16.364100
						CHANNELS 3 Xrotation Yrotation Zrotation
						JOINT LeftToe_End
						{
							OFFSET -1.784700 -0.561700 9.474800
							CHANNELS 3 Xrotation Yrotation Zrotation
							End Site
							{
								OFFSET 0 0 0
							}
						}
					}
				}
			}
		}
	}
	JOINT RightUpLeg_virtual
	{
		OFFSET 0.000000 0.000000 0.000000
		CHANNELS 3 Xrotation Yrotation Zrotation
		JOINT RightUpLeg
		{
			OFFSET -12.883000 -6.336304 -1.092800
			CHANNELS 3 Xrotation Yrotation Zrotation
			JOINT RightLeg
			{
				OFFSET -0.524587 -46.096825 9.782800
				CHANNELS 3 Xrotation Yrotation Zrotation
				JOINT RightFoot
				{
					OFFSET 0.524587 -53.427383 -12.948300
					CHANNELS 3 Xrotation Yrotation Zrotation
					JOINT RightToeBase
					{
						OFFSET -0.192200 -14.009700 16.364100
						CHANNELS 3 Xrotation Yrotation Zrotation
						JOINT RightToe_End
						{
							OFFSET 1.784700 -0.561700 9.474800
							CHANNELS 3 Xrotation Yrotation Zrotation
							End Site
							{
								OFFSET 0 0 0
							}
						}
					}
				}
			}
		}
	}
	JOINT Spine_virtual
	{
		OFFSET 0.000000 0.000000 0.000000
		CHANNELS 3 Xrotation Yrotation Zrotation
		JOINT Spine
		{
			OFFSET 0.072000 7.257294 -0.789700
			CHANNELS 3 Xrotation Yrotation Zrotation
			JOINT Spine1
			{
				OFFSET 0.000000 12.508769 -0.658067
				CHANNELS 3 Xrotation Yrotation Zrotation
				JOINT Spine1_split
				{
					OFFSET 0.000000 12.508769 -0.658067
					CHANNELS 3 Xrotation Yrotation Zrotation
					JOINT Spine2
					{
						OFFSET 0.000000 12.508769 -0.658067
						CHANNELS 3 Xrotation Yrotation Zrotation
						JOINT Neck_virtual
						{
							OFFSET 0.000000 0.000000 0.000000
							CHANNELS 3 Xrotation Yrotation Zrotation
							JOINT Neck
							{
								OFFSET 0.000000 14.033295 7.520400
								CHANNELS 3 Xrotation Yrotation Zrotation
								JOINT Head
								{
									OFFSET 0.000000 8.198502 5.703100
									CHANNELS 3 Xrotation Yrotation Zrotation
									JOINT HeadTop_End
									{
										OFFSET 0.000000 17.760803 13.332701
										CHANNELS 3 Xrotation Yrotation Zrotation
										End Site
										{
											OFFSET 0 0 0
										}
									}
								}
							}
						}
						JOINT LeftShoulder_virtual
						{
							OFFSET 0.000000 0.000000 0.000000
							CHANNELS 3 Xrotation Yrotation Zrotation
							JOINT LeftShoulder
							{
								OFFSET 6.292450 5.785301 -0.669000
								CHANNELS 3 Xrotation Yrotation Zrotation
								JOINT LeftShoulder_split
								{
									OFFSET 6.292450 5.785301 -0.669000
									CHANNELS 3 Xrotation Yrotation Zrotation
									JOINT LeftArm
									{
										OFFSET 13.907140 -6.093903 1.965100
										CHANNELS 3 Xrotation Yrotation Zrotation
										JOINT LeftForeArm
										{
											OFFSET 34.140198 0.000000 0.000000
											CHANNELS 3 Xrotation Yrotation Zrotation
											JOINT LeftHand
											{
												OFFSET 40.960209 0.000000 0.000000
												CHANNELS 3 Xrotation Yrotation Zrotation
												End Site
												{
													OFFSET 0 0 0
												}
											}
										}
									}
								}
							}
						}
						JOINT RightShoulder_virtual
						{
							OFFSET 0.000000 0.000000 0.000000
							CHANNELS 3 Xrotation Yrotation Zrotation
							JOINT RightShoulder
							{
								OFFSET -6.292450 5.785301 -0.669000
								CHANNELS 3 Xrotation Yrotation Zrotation
								JOINT RightShoulder_split
								{
									OFFSET -6.292450 5.785301 -0.669000
									CHANNELS 3 Xrotation Yrotation Zrotation
									JOINT RightArm
									{
										OFFSET -13.907140 -6.093903 1.965100
										CHANNELS 3 Xrotation Yrotation Zrotation
										JOINT RightForeArm
										{
											OFFSET -34.140198 0.000000 0.000000
											CHANNELS 3 Xrotation Yrotation Zrotation
											JOINT RightHand
											{
												OFFSET -40.960209 0.000000 0.000000
												CHANNELS 3 Xrotation Yrotation Zrotation
												End Site
												{
													OFFSET 0 0 0
												}
											}
										}
									}
								}
							}
						}
					}
				}
			}
		}
	}
}
MOTION
Frames: 11
Frame Time: 0.03333333
-0.420577 105.592461 1.874310 0.000000 0.000000 0.000000 -179.533326 48.094562 177.364317 -29.358769 -6.337082 16.355868 22.438546 -6.707232 2.220693 6.606270 -2.017573 -12.077799 -6.878693 2.750523 0.370684 0.000000 0.000000 0.000000 177.209149 42.979990 -179.922919 -12.519901 3.314671 -14.075335 47.186536 -2.566582 -1.396162 -17.840598 -7.550416 17.634602 3.083942 0.020236 -0.097144 0.000000 0.000000 0.000000 -179.271033 50.048679 177.302859 7.050522 1.049142 8.808682 16.390552 0.392763 -0.681056 6.380821 10.107229 -0.403359 0.000000 0.000000 0.000000 17.514552 0.214895 -2.102815 -29.163388 -3.588214 -3.023442 -2.808999 -5.048500 6.000503 0.000000 0.000000 0.000000 19.344354 -0.194605 -1.627388 4.735071 -13.892976 -14.161287 -15.270442 -15.409590 -3.264782 22.450784 2.985885 -29.316415 45.078111 -74.634283 32.831551 0.000000 0.000000 0.000000 18.513224 1.062051 -1.090839 -0.557619 5.946876 -4.480565 11.217098 4.068070 -1.204391 -19.751435 -20.558531 67.732472 5.767306 58.200438 -8.123047 0.000000 0.000000 0.000000 
-0.094155 105.213844 1.376499 0.000000 0.000000 0.000000 179.581096 48.708364 177.056945 -28.598506 -4.966995 16.771830 25.391858 -7.255403 2.542667 5.294927 -2.025268 -11.994826 -5.706025 2.727961 0.158759 0.000000 0.000000 0.000000 176.326374 43.353683 179.621298 -15.311665 3.062532 -13.812543 47.489414 -2.931283 -0.575693 -16.872271 -6.915183 15.975020 4.377039 0.179128 0.215318 0.000000 0.000000 0.000000 178.687557 50.270834 177.603319 7.556599 0.582939 8.810459 16.302109 0.147762 -0.766465 5.124628 9.883857 -2.398116 0.000000 0.000000 0.000000 16.639528 -0.075831 -1.879858 -27.059307 -3.901861 -3.747691 -1.463245 -4.719984 5.684066 0.000000 0.000000 0.000000 18.989644 -0.535562 -1.893273 4.344964 -15.395106 -13.699774 -11.984280 -13.421427 -3.164749 20.120441 3.080170 -28.472743 40.511939 -73.029926 28.191857 0.000000 0.000000 0.000000 18.757680 1.026676 -1.243203 -0.579408 7.504611 -3.699350 11.962170 1.239697 -0.292935 -20.774041 -20.537832 66.946932 4.999903 57.150880 -7.014603 0.000000 0.000000 0.000000 
0.186216 103.964661 0.257092 0.000000 0.000000 0.000000 176.346400 51.268684 178.420210 -28.197297 -3.181461 17.737282 30.366372 -7.196218 2.903409 1.506649 -0.249105 -12.533077 -4.404561 2.930948 -0.433948 0.000000 0.000000 0.000000 173.731326 45.742996 -179.820467 -22.708156 4.106387 -13.091516 49.345993 -2.194073 0.406252 -11.471629 -4.950790 16.487066 3.504852 0.422973 0.189906 0.000000 0.000000 0.000000 174.475543 52.309902 179.431419 8.019768 0.126181 8.517584 15.663741 -0.033425 -0.689188 4.908610 8.218710 -1.953769 0.000000 0.000000 0.000000 15.053191 -0.421424 -1.486023 -23.739914 -4.424709 -4.009667 0.292577 -6.496531 6.742941 0.000000 0.000000 0.000000 18.060393 -0.851826 -2.116490 3.520573 -17.086517 -12.703938 -9.777967 -10.588602 -3.835765 19.725351 0.821894 -24.486213 35.602498 -69.871305 22.539021 0.000000 0.000000 0.000000 18.571322 1.039099 -1.198153 -0.647210 8.917834 -3.135423 11.146058 -1.616278 0.717105 -21.320695 -16.689219 64.140066 3.954372 51.960070 -5.004110 0.000000 0.000000 0.000000 
0.120497 102.143524 -1.262871 0.000000 0.000000 0.000000 170.835107 55.221359 -178.337073 -28.245088 -1.073693 19.130178 36.371905 -6.634107 3.111435 -4.660940 2.812492 -13.608400 -4.718503 3.208739 -0.851646 0.000000 0.000000 0.000000 169.194017 49.511720 -177.369754 -32.858216 6.137096 -11.350855 52.350507 -0.988236 1.195376 -4.702746 -2.205890 17.109672 1.338854 0.696809 0.009545 0.000000 0.000000 0.000000 168.065411 55.319638 -176.680383 8.490467 -0.159366 7.840020 14.716693 -0.105088 -0.572763 4.228742 6.377566 -0.180649 0.000000 0.000000 0.000000 13.247162 -0.666989 -1.130185 -20.343372 -5.067600 -3.562885 1.207233 -9.529354 8.726441 0.000000 0.000000 0.000000 16.878987 -0.995323 -2.309151 2.425688 -18.672139 -11.307231 -7.900328 -7.135125 -4.529701 21.190894 -1.342295 -18.985554 33.651587 -67.528304 19.333679 0.000000 0.000000 0.000000 17.971503 1.030821 -1.051405 -0.750931 9.484775 -3.327493 9.340636 -2.906868 1.563586 -20.384513 -10.629575 61.145158 3.564842 44.716938 -3.120679 0.000000 0.000000 0.000000 
-0.027596 99.740601 -3.042900 0.000000 0.000000 0.000000 162.902320 59.165298 -172.477030 -28.825376 1.244131 20.942422 42.133538 -5.768621 2.969015 -12.591438 6.388911 -14.691650 -6.439129 3.392810 -1.042916 0.000000 0.000000 0.000000 162.746141 54.019109 -172.849357 -44.320479 8.435620 -8.545795 55.787670 -0.386741 1.829006 0.864553 0.167618 15.421823 0.793385 0.962515 -0.020069 0.000000 0.000000 0.000000 159.239891 58.810012 -170.082420 8.923816 -0.126602 6.720474 13.741326 -0.095166 -0.520462 3.161115 5.294562 1.948423 0.000000 0.000000 0.000000 11.895271 -0.764464 -0.957586 -18.429659 -5.649065 -2.750477 0.022708 -13.349956 11.069121 0.000000 0.000000 0.000000 15.714150 -0.926529 -2.485289 1.281424 -19.835559 -9.645620 -6.368446 -3.279260 -4.762314 22.767510 -0.778138 -14.437548 34.566679 -67.815159 18.968701 0.000000 0.000000 0.000000 17.256811 0.980266 -0.969964 -0.962787 8.844487 -4.546828 7.050659 -2.142365 2.234142 -18.240982 -5.727053 59.023080 3.807397 37.338097 -1.620245 0.000000 0.000000 0.000000 
-0.132805 96.933212 -3.852028 0.000000 0.000000 0.000000 152.850276 61.882730 -163.834682 -30.965851 2.827872 23.461983 47.958320 -5.302617 2.234221 -19.909655 9.583738 -16.844669 -8.034064 3.531532 -1.252547 0.000000 0.000000 0.000000 154.270805 58.018475 -165.646772 -55.612155 10.456305 -5.617171 59.226633 -0.560759 2.544931 4.681955 1.916364 11.547965 2.146809 1.155938 0.161323 0.000000 0.000000 0.000000 148.166160 62.005359 -160.585998 9.440117 0.203768 5.360494 12.936745 -0.053007 -0.648205 1.630884 3.168361 3.692322 0.000000 0.000000 0.000000 11.485601 -0.707902 -1.048829 -18.943347 -6.110832 -1.933332 -3.895718 -17.066898 12.870766 0.000000 0.000000 0.000000 14.973989 -0.762005 -2.719551 0.315569 -20.013750 -7.729248 -5.323256 0.569730 -5.389342 22.729637 3.332200 -12.712743 39.291964 -71.745919 22.814755 0.000000 0.000000 0.000000 16.766149 0.798977 -1.081319 -1.426017 6.813330 -6.696612 3.805821 0.215402 3.288050 -15.731066 -5.385553 58.466904 4.488545 31.183099 -0.724442 0.000000 0.000000 0.000000 
-0.289764 93.726593 -3.990765 0.000000 0.000000 0.000000 142.537237 63.057461 -154.363614 -34.353560 2.963216 26.736801 54.260515 -6.510968 1.311332 -23.831025 12.223131 -21.226770 -9.134349 3.814726 -1.279912 0.000000 0.000000 0.000000 144.867943 60.355834 -156.968675 -65.895083 12.443834 -3.380532 62.536570 -0.431755 3.081364 7.576999 4.171614 7.885517 2.884058 1.285162 0.383190 0.000000 0.000000 0.000000 136.108321 64.032887 -149.279276 10.103299 0.738320 3.913755 12.492800 -0.060815 -0.977241 -0.228773 0.424601 3.488235 0.000000 0.000000 0.000000 12.042614 -0.572200 -1.408000 -21.966240 -6.349947 -1.438867 -10.248975 -20.469636 13.645630 0.000000 0.000000 0.000000 14.936109 -0.546992 -3.115127 -0.278112 -19.207023 -5.902215 -5.187828 3.223381 -7.227870 21.505067 10.966836 -14.485511 52.454029 -77.734902 35.738630 0.000000 0.000000 0.000000 16.666104 0.544288 -1.485869 -1.998063 4.166280 -9.041502 -0.603850 3.652766 4.833190 -14.133132 -12.402054 59.537441 4.817079 26.529384 -0.132532 0.000000 0.000000 0.000000 
-0.282460 89.848778 -3.476906 0.000000 0.000000 0.000000 134.290344 62.806772 -146.246508 -37.541558 2.520704 29.645330 59.352138 -7.938591 -0.311710 -27.084190 14.842787 -23.491753 -9.294718 4.180535 -1.197601 0.000000 0.000000 0.000000 136.161460 61.258471 -148.580807 -74.483186 14.496416 -2.657421 65.675677 0.645516 3.293502 10.183186 7.591910 6.123706 0.990103 1.327552 0.374062 0.000000 0.000000 0.000000 124.510838 64.914152 -137.623763 10.864773 1.308455 2.658459 12.548879 -0.259298 -1.393772 -1.462905 -0.848808 3.151238 0.000000 0.000000 0.000000 13.365044 -0.527105 -1.948542 -26.792394 -6.508399 -1.599655 -17.972439 -23.298429 13.508747 0.000000 0.000000 0.000000 15.649637 -0.448531 -3.608660 -0.374877 -17.785999 -4.479621 -6.357765 2.700072 -10.455408 21.373597 21.322452 -20.000252 85.585740 -81.989796 69.309140 0.000000 0.000000 0.000000 17.127155 0.324049 -2.074075 -2.686109 1.590574 -10.591753 -3.870170 7.270567 6.946045 -14.576266 -26.006528 60.341149 4.338943 24.075877 0.226242 0.000000 0.000000 0.000000 
-0.050878 85.461975 -2.500935 0.000000 0.000000 0.000000 129.508842 61.597774 -141.063788 -39.763691 2.160193 31.744800 62.360932 -8.142245 -3.285723 -32.216906 16.987090 -20.667043 -9.148804 4.591905 -1.097733 0.000000 0.000000 0.000000 129.041780 61.071003 -141.406663 -81.159853 16.474418 -4.044977 68.490808 2.588731 3.279755 11.864077 11.967577 6.541294 -2.939843 1.250447 0.096809 0.000000 0.000000 0.000000 115.394953 64.566325 -127.780955 11.727676 1.731009 2.037586 12.903657 -0.633173 -1.867142 -1.545658 0.084031 2.257285 0.000000 0.000000 0.000000 14.917340 -0.606577 -2.610654 -31.707429 -6.496401 -2.098992 -25.578130 -24.996433 12.901175 0.000000 0.000000 0.000000 16.923539 -0.487443 -4.111126 0.088360 -16.065727 -3.569437 -7.777549 -1.071373 -13.879685 23.742866 32.131471 -28.587793 125.160088 -81.510849 109.898802 0.000000 0.000000 0.000000 18.029212 0.148653 -2.763747 -3.310272 -0.441749 -10.507788 -4.816708 10.066944 8.727618 -17.922813 -41.960092 58.807738 2.946854 24.791971 0.436258 0.000000 0.000000 0.000000 
0.266370 80.836838 -1.696163 0.000000 0.000000 0.000000 128.023304 59.824295 -139.010401 -42.505080 1.468299 33.891679 65.531868 -8.302707 -6.709594 -36.330258 17.054658 -15.630278 -9.909834 5.052171 -1.246277 0.000000 0.000000 0.000000 124.317953 60.103069 -136.518830 -86.169093 18.186231 -7.579032 71.015225 4.909040 3.357259 11.242823 16.764681 8.456071 -6.061982 1.093191 -0.207742 0.000000 0.000000 0.000000 109.723895 63.235954 -120.921246 12.552386 2.031691 2.345593 13.409363 -1.061557 -2.345508 -0.848771 3.160856 1.855496 0.000000 0.000000 0.000000 16.218704 -0.675447 -3.295085 -35.320179 -6.432323 -2.683993 -31.472965 -25.380146 12.701391 0.000000 0.000000 0.000000 18.330892 -0.486309 -4.473266 1.030334 -14.677175 -3.225240 -10.295318 -6.396229 -17.272522 27.617250 42.545450 -38.101374 138.592038 -79.609803 124.879873 0.000000 0.000000 0.000000 19.059119 0.021344 -3.442477 -3.739366 -1.792562 -8.163663 -3.671642 11.304422 9.810660 -25.757653 -54.539504 52.560000 0.739742 28.006036 0.722780 0.000000 0.000000 0.000000 
1.023398 76.317162 -1.277039 0.000000 0.000000 0.000000 129.162265 57.387045 -139.452628 -48.126520 0.415508 37.045949 71.165469 -9.236778 -10.075202 -35.346577 14.439259 -12.350408 -11.461485 5.449971 -2.022827 0.000000 0.000000 0.000000 122.429365 58.262647 -134.367320 -89.590034 19.513507 -12.847108 73.549287 6.800757 4.033256 7.504798 20.870227 10.572795 -6.487451 0.841416 -0.289703 0.000000 0.000000 0.000000 107.991875 61.145677 -117.773526 13.195160 2.161846 3.691028 13.704752 -1.459700 -2.771438 0.402865 7.383884 1.663672 0.000000 0.000000 0.000000 16.858111 -0.619032 -3.966064 -36.435067 -6.196675 -3.095988 -34.670006 -24.530739 13.615595 0.000000 0.000000 0.000000 19.506621 -0.483580 -4.658046 2.195119 -14.119522 -3.283017 -13.488785 -10.118738 -19.697332 31.127197 52.519285 -45.646547 138.873059 -78.669764 127.187971 0.000000 0.000000 0.000000 19.940174 -0.064213 -3.950968 -4.114531 -2.740877 -3.490826 -1.818660 10.852947 9.574002 -36.668946 -59.446756 43.331123 -1.577173 31.284247 1.114190 0.000000 0.000000 0.000000 
